PathFileType	3	(X/Y/Z)	D:\Jess\Healthy\Labelled\HA12\20250414\SRRun02.trc
DataRate	CameraRate	NumFrames	NumMarkers	Units	OrigDataRate	OrigDataStartFrame	OrigNumFrames
250.0	250.0	4	37	mm	250.0	37188	2501
Frame#	Time	C7			T10			CLAV			LSHO			RSHO			LASIS			RASIS			LPSIS			RPSIS			LILCR			RILCR			LGTR			LTHI			LLTHI			LLEP			LMEP			LPSH			LLSH			LDSH			LLMAL			LMMAL			LTOE			L5TH			LHEE			RGTR			RTHI			RLTHI			RLEP			RMEP			RPSH			RLSH			RDSH			RLMAL			RMMAL			RTOE			R5TH			RHEE			
		X1	Y1	Z1	X2	Y2	Z2	X3	Y3	Z3	X4	Y4	Z4	X5	Y5	Z5	X6	Y6	Z6	X7	Y7	Z7	X8	Y8	Z8	X9	Y9	Z9	X10	Y10	Z10	X11	Y11	Z11	X12	Y12	Z12	X13	Y13	Z13	X14	Y14	Z14	X15	Y15	Z15	X16	Y16	Z16	X17	Y17	Z17	X18	Y18	Z18	X19	Y19	Z19	X20	Y20	Z20	X21	Y21	Z21	X22	Y22	Z22	X23	Y23	Z23	X24	Y24	Z24	X25	Y25	Z25	X26	Y26	Z26	X27	Y27	Z27	X28	Y28	Z28	X29	Y29	Z29	X30	Y30	Z30	X31	Y31	Z31	X32	Y32	Z32	X33	Y33	Z33	X34	Y34	Z34	X35	Y35	Z35	X36	Y36	Z36	X37	Y37	Z37	

2189	148.748	1262.064775639582	1487.94122444173	-381.4036078568438	1156.689968783337	1210.197052825011	-395.3063221479192	1394.205507652018	1353.712973378593	-349.4290563697663	1360.692233603021	1423.436308657859	-525.3051054499723	1302.238987774004	1428.543703347199	-211.5421672769186	1325.309669328117	932.662479886324	-488.7478432873825	1320.213310677035	948.1769591211098	-247.2132736157598	1123.458699509118	1032.134621340523	-391.1903653451371	1123.644406911371	1030.675278410022	-352.9979309437001	1282.781572608194	996.9241082788377	-541.5121591216855	1243.72158459969	1015.643326364491	-187.5735949735219	1253.465265569033	811.7355284235272	-541.3217785321083	1306.475970259084	685.9856655870034	-458.6046063523317	1208.339796039542	635.9423212038188	-520.9983732974177	1176.557740687834	503.4164910173072	-499.1887101480895	nan	nan	nan	1162.726672969243	387.9826705541563	-440.2152604452463	1046.120167211807	327.0110093025643	-499.903510936462	1027.282911117018	208.5290149948627	-426.3740039305587	933.3835051395369	157.8046269507101	-451.5058049502921	nan	nan	nan	1051.345720379747	55.96939426787447	-428.7837959575763	1013.157980678929	49.30013721834408	-466.1953132494365	853.5934956611728	155.7326471405663	-401.4284434705968	1270.816658311363	851.5626208473986	-177.0956156523153	1403.728344322358	764.2981064083216	-292.9067343634742	1347.783130747961	657.9667348206935	-192.6177208981818	1374.961812627154	536.6238222148194	-210.1838017118353	nan	nan	nan	1371.723407760371	427.819666385632	-271.2155231451813	1266.958136569314	399.2416304441454	-207.1257420417212	1213.85581844944	267.924797419023	-292.3437971924739	1123.120520830776	241.7062271090132	-257.3792378837198	nan	nan	nan	1220.887937857131	110.4340048685905	-262.1103785588469	1170.451317927114	98.89093308775165	-225.6273266314541	1042.031686360136	249.4773209388637	-315.8228688730206	
2190	148.752	1262.147960299303	1490.626342196734	-381.3734658177877	1157.337629357986	1212.965048004261	-396.0856345420422	1394.307874596963	1356.939940533799	-348.5808655823388	1361.588837743085	1426.624487147265	-524.5123979166161	1301.248912980139	1431.632703778043	-211.4482784455481	1326.182442337886	935.1532903317442	-487.8999260266709	1320.322216907	951.5852465241219	-246.8897954691803	1124.237033766745	1035.259769157215	-391.4183922560597	1124.309504475163	1033.92885967898	-353.1325739648966	1285.119457221697	999.540085989262	-540.4646812430477	1244.110723737911	1019.577480500125	-187.5156780672678	1253.020380213997	814.2637620583819	-541.1001830767191	1303.497238365948	687.7265074105194	-458.4366290819945	1204.711131102041	639.1376797094362	-521.5608637308808	1170.57322888681	507.1531975904088	-500.1277360607293	nan	nan	nan	1155.902741071351	391.4001154915717	-441.8305654744556	1038.674127295029	331.4201787648873	-501.0858857266792	1020.244877054504	212.1224513928019	-428.1269375228278	925.9811104528362	161.6771176885162	-452.8412122337612	nan	nan	nan	1041.286688475382	55.99410280897684	-429.3092861599021	1002.88093942714	49.89474110933198	-466.6586159168461	846.5868001710974	161.6299240336118	-402.7707058274111	1271.26775308492	855.3364437035256	-176.5937291220761	1404.506212414091	768.3519415268551	-292.6085228035254	1349.466818889748	661.6291365184723	-192.4570838536697	1375.692990633484	539.4372961503475	-210.4946362745702	nan	nan	nan	1375.6039844967	430.1069282929595	-271.3742210746462	1271.354417567743	397.599679699894	-208.0336428462242	1223.937894226324	264.3489891816614	-293.5213199853213	1133.937300570671	234.6874382411738	-259.4150468812479	nan	nan	nan	1236.757002662192	107.4453756050743	-262.9432635948243	1186.481097252501	93.86602121040561	-227.0606467758968	1053.185519017241	239.2956212671377	-318.6739313510591	
2191	148.756	1262.258685972448	1493.244096561495	-381.3138121678867	1157.985472062906	1215.698803922039	-396.7965894410119	1394.415301280349	1360.107134367707	-347.7618155303037	1362.441072262717	1429.778603571097	-523.7047968114945	1300.347848935144	1434.660720528089	-211.3534976004129	1327.067617525866	937.7006158239207	-486.9963982234379	1320.435617264437	954.9984639974574	-246.4994349813476	1125.029675806283	1038.327724272426	-391.6655944422468	1124.98142667291	1037.133591815321	-353.3015250868609	1287.375194728492	1002.177776675135	-539.4094016166993	1244.466741627084	1023.480559881749	-187.4651096790355	1252.646314814426	816.7545996804907	-540.8882087663162	1300.653187348713	689.4683143138677	-458.3871506043214	1201.214340612509	642.3391632920195	-522.1433325759011	1164.805472894777	510.901264990449	-501.073849368599	nan	nan	nan	1149.336055999367	394.841401367932	-443.4837474162811	1031.469961363954	335.8605104734579	-502.2763092372797	1013.467698511448	215.7488955786227	-429.939234480887	918.8592968747415	165.5976580831862	-454.2434111957015	nan	nan	nan	1031.362287113735	56.08301212639645	-429.8465965261646	992.7839011481416	50.57010330720034	-467.169740443212	839.8787530925518	167.6405025159183	-404.2195488346011	1271.586596509288	859.0925961271749	-176.0953628779191	1405.296271277811	772.3454672296774	-292.2513140578002	1350.945546245847	665.1437014034697	-192.3903110520451	1376.123052924223	542.0649183363073	-210.8114008267295	nan	nan	nan	1379.25417292505	432.2726697116911	-271.4948945716013	1275.656458088011	395.8706309844207	-208.9151944289767	1234.11448403784	260.8243134889669	-294.6253747582287	1144.986729747503	227.7305196570376	-261.3816929746309	nan	nan	nan	1252.725197691628	104.7200723733912	-263.6411000657147	1202.691514421002	89.10424652612258	-228.3739979939433	1064.727012567219	229.1575369005793	-321.4827877079309	
2192	148.76	1262.394960030798	1495.781697403781	-381.2261596662074	1158.631144670368	1218.384043138758	-397.4378908285916	1394.526469084171	1363.202987171945	-346.9693102221366	1363.24522599084	1432.885404572522	-522.8841943789678	1299.533777495981	1437.618978118422	-211.2547450191879	1327.957467940186	940.2904828281066	-486.047125865408	1320.555519735292	958.3968450895053	-246.0548463702368	1125.832006125597	1041.328208534963	-391.931132797369	1125.658404586313	1040.275161980998	-353.5048547950714	1289.53763358388	1004.829916894028	-538.358305345634	1244.787482520235	1027.332042968039	-187.4258637793873	1252.322347440142	819.1971591721395	-540.6911103055716	1297.941701898571	691.1994308249461	-458.4516771347593	1197.849028831756	645.5305411701386	-522.7366407523391	1159.263862934588	514.6377214522183	-502.013688189811	nan	nan	nan	1143.031831904465	398.2841738509504	-445.1520544734723	1024.519196705098	340.3083274837733	-503.4671271547944	1006.943723763411	219.390699354716	-431.7936449949555	912.0143686054915	169.5532295387817	-455.7079831675323	nan	nan	nan	1021.572080778053	56.24941515113816	-430.3918620034507	982.8684781381261	51.33635257525017	-467.7258910793198	833.4651683446433	173.745304237003	-405.7789382654019	1271.780888293446	862.8126495707273	-175.6117819703408	1406.093731588995	776.2653759919581	-291.8321523197313	1352.186099022308	668.487460513009	-192.4341354496855	1376.259508037144	544.4950805141458	-211.1392397259079	nan	nan	nan	1382.677626795343	434.3109406945333	-271.5828290304844	1279.876365060268	394.0640424350945	-209.7648797566537	1244.376648339339	257.3744852484526	-295.6507775966759	1156.26730430019	220.867446668923	-263.2590733396108	nan	nan	nan	1268.778111444841	102.2846772956631	-264.2125708100299	1219.073794998921	84.63541154643946	-229.564659756161	1076.646781861159	219.1068928273216	-324.2134554468024	
